PathFileType	4	(X/Y/Z)	C:\Documents and Settings\user\My Documents\MotionFiles\BioEngCompLab_Data\Delaware\Subject 2\Static1_smoothed.trc
DataRate	CameraRate	NumFrames	NumMarkers	Units	OrigDataRate	OrigDataStartFrame	OrigNumFrames
60.00	60.00	       6	49	mm	60.00	38	       300
Frame#	Time	R.ASIS			L.ASIS			V.Sacral			R.Thigh.Upper			R.Thigh.Front			R.Thigh.Rear			L.Thigh.Upper			L.Thigh.Front			L.Thigh.Rear			R.Knee.Lat			R.Knee.Med			L.Knee.Lat			L.Knee.Med			R.Shank.Upper			R.Shank.Front			R.Shank.Rear			L.Shank.Upper			L.Shank.Front			L.Shank.Rear			R.Ankle.Lat			R.Ankle.Med			L.Ankle.Lat			L.Ankle.Med			R.Heel			R.Midfoot.Sup			R.Midfoot.Lat			R.Toe.Tip			L.Heel			L.Midfoot.Sup			L.Midfoot.Lat			L.Toe.Tip			Sternum			R.Acromium			L.Acromium			R.Bicep			L.Bicep			R.Elbow			L.Elbow			R.Wrist.Med			R.Wrist.Lat			L.Wrist.Med			L.Wrist.Lat			R.Toe.Lat			R.Toe.Med			L.Toe.Lat			L.Toe.Med			R.Temple			L.Temple			Top.Head			
		X1	Y1	Z1	X2	Y2	Z2	X3	Y3	Z3	X4	Y4	Z4	X5	Y5	Z5	X6	Y6	Z6	X7	Y7	Z7	X8	Y8	Z8	X9	Y9	Z9	X10	Y10	Z10	X11	Y11	Z11	X12	Y12	Z12	X13	Y13	Z13	X14	Y14	Z14	X15	Y15	Z15	X16	Y16	Z16	X17	Y17	Z17	X18	Y18	Z18	X19	Y19	Z19	X20	Y20	Z20	X21	Y21	Z21	X22	Y22	Z22	X23	Y23	Z23	X24	Y24	Z24	X25	Y25	Z25	X26	Y26	Z26	X27	Y27	Z27	X28	Y28	Z28	X29	Y29	Z29	X30	Y30	Z30	X31	Y31	Z31	X32	Y32	Z32	X33	Y33	Z33	X34	Y34	Z34	X35	Y35	Z35	X36	Y36	Z36	X37	Y37	Z37	X38	Y38	Z38	X39	Y39	Z39	X40	Y40	Z40	X41	Y41	Z41	X42	Y42	Z42	X43	Y43	Z43	X44	Y44	Z44	X45	Y45	Z45	X46	Y46	Z46	X47	Y47	Z47	X48	Y48	Z48	X49	Y49	Z49	

38	0.617000	627.121950	1069.844120	164.755840	619.280820	1061.844480	-88.584350	424.565920	1064.660400	34.612090	547.018310	761.567630	219.048750	613.096130	696.893250	158.362400	512.477660	666.491520	212.596210	554.229550	763.732420	-146.406560	615.929080	689.526120	-75.470310	531.884280	634.592040	-134.511870	492.782900	543.945680	199.297180	499.641910	526.954160	72.121540	489.187010	548.160640	-120.180990	517.786620	524.865780	-3.400940	484.249210	461.708530	210.634380	532.163020	389.710240	166.615450	470.420470	379.241360	219.386170	462.587130	451.053990	-137.401750	526.360110	371.040800	-99.904190	439.515260	383.091250	-143.411530	431.621280	104.532090	205.660580	451.386350	115.178960	122.017170	420.905150	104.351210	-126.253020	445.244930	109.394240	-37.080780	366.622100	75.406420	161.590300	510.055420	72.041960	129.341600	479.798430	64.912390	228.088320	646.586850	64.110300	166.230030	352.443970	71.570170	-89.876360	495.064180	66.070480	-49.962420	478.577820	54.155220	-151.628160	634.647160	62.419900	-93.771580	615.062320	1457.623410	26.758100	476.620730	1570.797240	209.204640	462.992860	1566.173950	-132.298740	443.032930	1490.223630	385.784150	439.385070	1481.614500	-336.702240	435.852360	1469.820190	486.586730	446.409210	1469.766480	-428.403200	549.261170	1526.510860	734.923220	483.712250	1538.739010	733.043880	578.357600	1497.447510	-663.738160	505.806850	1505.701900	-676.250490	573.619320	49.129970	242.145290	579.333560	39.291660	129.501560	555.439880	36.604610	-170.899870	571.331910	43.236430	-58.146220	581.395810	1702.952640	99.973700	589.649110	1714.650510	-42.576910	607.828610	1808.067380	22.190270	
39	0.633000	627.139830	1069.850220	164.769810	619.006040	1061.804570	-88.503850	424.623780	1064.724120	34.544570	547.016240	761.567080	219.046080	613.126590	696.876460	158.354130	512.482790	666.488950	212.593800	554.219600	763.715090	-146.411090	615.979550	689.545100	-75.479840	531.923520	634.595150	-134.511470	492.798310	543.962520	199.287370	499.711210	526.981450	72.113850	489.423070	548.160460	-120.272480	517.795230	524.862490	-3.402650	484.248780	461.709010	210.634550	532.205200	389.724180	166.614360	470.439580	379.267430	219.383900	462.586940	451.111300	-137.448900	526.404110	371.084080	-99.913410	439.529720	383.054320	-143.429930	431.635770	104.512830	205.654390	451.372920	115.171300	122.027530	420.846590	104.292560	-126.210330	445.282530	109.417660	-37.071270	366.721100	75.473170	161.532780	510.019960	71.996930	129.347150	479.814670	64.904360	228.076030	646.433720	64.084820	166.173650	352.577030	71.687320	-89.942620	495.062290	66.071560	-49.962330	478.567470	54.159380	-151.626250	634.647220	62.419850	-93.771580	615.069820	1457.589110	26.778810	476.651210	1570.773680	209.249100	463.002380	1566.184570	-132.228680	443.034180	1490.315670	385.947110	439.420200	1481.641720	-336.676180	435.849400	1469.809690	486.572940	446.523070	1469.776730	-428.191860	549.319150	1526.518310	734.985720	483.651820	1538.760740	733.060610	578.355220	1497.485600	-663.695920	505.866460	1505.774660	-676.148620	573.626650	49.125810	242.144610	579.357970	39.276690	129.499690	555.454770	36.633920	-170.888000	571.077330	43.116170	-58.287990	581.448610	1702.951290	100.005390	589.769290	1714.606450	-42.560770	607.885250	1808.012820	22.269290	
40	0.650000	627.138060	1069.845090	164.764650	618.623780	1061.764770	-88.374740	424.734620	1064.813840	34.447630	547.027830	761.581360	219.036100	613.196290	696.890990	158.353910	512.497070	666.489440	212.595700	554.223750	763.702510	-146.419420	616.030880	689.567080	-75.479060	531.950440	634.594180	-134.508650	492.809420	543.980350	199.249190	499.773560	527.006040	72.106350	489.835210	548.148380	-120.444370	517.786250	524.865840	-3.400700	484.250270	461.707860	210.635220	532.250310	389.718110	166.628780	470.437770	379.280000	219.396740	462.585050	451.184140	-137.499360	526.415950	371.114040	-99.923100	439.481080	383.059570	-143.403500	431.657230	104.486560	205.652110	451.361820	115.166020	122.023670	420.822450	104.267150	-126.191200	445.282320	109.415260	-37.064820	366.740080	75.525470	161.541930	510.000310	71.973950	129.350450	479.815190	64.907790	228.079390	646.377810	64.075130	166.152790	352.639430	71.773110	-89.920490	495.061340	66.072080	-49.962290	478.565120	54.180810	-151.613920	634.649660	62.417000	-93.772000	615.064450	1457.570560	26.807440	476.689850	1570.763180	209.285750	462.995000	1566.203860	-132.167450	443.025050	1490.430540	386.086460	439.455350	1481.669070	-336.650090	435.767210	1469.849240	486.579100	446.612580	1469.782230	-428.014500	549.327700	1526.535160	735.057920	483.561430	1538.805660	733.098940	578.343690	1497.510500	-663.661740	505.934540	1505.844480	-676.084110	573.643430	49.116260	242.143010	579.407900	39.263930	129.501080	555.484800	36.693310	-170.863940	570.887330	43.033600	-58.428710	581.487060	1702.965090	100.082140	589.850770	1714.551030	-42.528220	608.019710	1807.927120	22.387180	
41	0.667000	627.141170	1069.839480	164.748840	618.352970	1061.741820	-88.278290	424.845490	1064.886720	34.368530	547.062560	761.604310	219.019820	613.291320	696.937620	158.366650	512.536250	666.489990	212.599900	554.253360	763.700440	-146.434910	616.070250	689.569460	-75.472110	531.950200	634.589420	-134.505250	492.812100	543.991090	199.205060	499.803190	527.017940	72.100730	490.146390	548.133850	-120.576810	517.776920	524.869380	-3.398700	484.256230	461.702390	210.636230	532.295650	389.703640	166.652890	470.421300	379.279480	219.416950	462.600770	451.251400	-137.544280	526.402590	371.128020	-99.929080	439.348600	383.092770	-143.331850	431.670960	104.471810	205.656810	451.351410	115.162250	122.005630	420.828400	104.289270	-126.207110	445.249300	109.389690	-37.058720	366.707090	75.539590	161.591720	510.014160	71.992390	129.348360	479.804990	64.911620	228.094280	646.376710	64.074580	166.152110	352.612240	71.785930	-89.791290	495.061070	66.072230	-49.962280	478.566500	54.203020	-151.600950	634.656430	62.409120	-93.773140	615.053830	1457.575810	26.847600	476.735410	1570.771360	209.317210	462.979640	1566.226680	-132.117970	443.021670	1490.507450	386.180330	439.490540	1481.696290	-336.623990	435.650210	1469.945920	486.635160	446.662230	1469.779420	-427.910800	549.305480	1526.564700	735.135680	483.473140	1538.868410	733.167110	578.328060	1497.532710	-663.621640	506.003630	1505.922730	-676.067020	573.674010	49.098850	242.140110	579.459290	39.264190	129.506390	555.525270	36.773170	-170.831590	570.939030	43.068660	-58.470530	581.517580	1702.988280	100.212630	589.865970	1714.516850	-42.444550	608.248470	1807.797730	22.526070	
42	0.683000	627.167180	1069.844120	164.735580	618.422120	1061.750610	-88.306560	424.873810	1064.910400	34.332840	547.120480	761.624820	218.997890	613.388790	696.991460	158.384630	512.605410	666.489140	212.605380	554.290470	763.706730	-146.443600	616.089230	689.539860	-75.466440	531.931030	634.588620	-134.506450	492.810030	543.994810	199.173600	499.842190	527.033940	72.089880	490.235870	548.122010	-120.616150	517.781430	524.867680	-3.399670	484.267880	461.691380	210.637570	532.324280	389.690090	166.672730	470.413420	379.278840	219.426360	462.674840	451.292080	-137.598830	526.401610	371.138280	-99.930270	439.185060	383.127500	-143.247450	431.677890	104.465160	205.661470	451.352200	115.164400	121.984770	420.848850	104.338090	-126.242970	445.230100	109.368680	-37.037420	366.668370	75.517870	161.613170	510.049710	72.036180	129.342640	479.794220	64.900130	228.096660	646.394470	64.077300	166.158490	352.523190	71.737800	-89.525450	495.061130	66.072200	-49.962280	478.567750	54.211470	-151.595980	634.668270	62.395350	-93.775130	615.050720	1457.597660	26.884330	476.787020	1570.785640	209.356110	462.968320	1566.236940	-132.079610	443.044560	1490.533080	386.227600	439.525760	1481.723630	-336.597870	435.559510	1470.107300	486.777470	446.677400	1469.774050	-427.871670	549.274480	1526.602660	735.213200	483.417940	1538.937870	733.272520	578.312070	1497.559940	-663.567440	506.071230	1506.015750	-676.084170	573.713680	49.076270	242.136350	579.481450	39.266420	129.509310	555.559330	36.840380	-170.804370	571.022830	43.120370	-58.414840	581.537410	1703.005740	100.375060	589.832890	1714.496340	-42.284180	608.535830	1807.641720	22.652570	
43	0.700000	627.209230	1069.861080	164.722490	618.819210	1061.787720	-88.458660	424.812190	1064.895020	34.335520	547.189030	761.634950	218.964190	613.465390	697.025820	158.395840	512.693600	666.487060	212.611220	554.319820	763.715880	-146.436170	616.082400	689.498470	-75.463220	531.914430	634.599850	-134.516220	492.807280	543.994870	199.158480	499.933140	527.070860	72.067510	490.145320	548.115050	-120.578580	517.788510	524.864990	-3.401210	484.282140	461.677800	210.639010	532.311890	389.673580	166.678070	470.429050	379.287200	219.414180	462.801820	451.310610	-137.670430	526.427550	371.151670	-99.929960	439.097050	383.139280	-143.203930	431.683690	104.457910	205.660370	451.382110	115.179820	121.981120	420.867890	104.381770	-126.275190	445.252140	109.373470	-37.006120	366.631840	75.487420	161.588880	510.083370	72.076450	129.337100	479.782260	64.881000	228.067980	646.410220	64.079830	166.164230	352.428280	71.687360	-89.107920	495.061220	66.072140	-49.962280	478.567350	54.205460	-151.599490	634.681520	62.379960	-93.777350	615.058410	1457.621090	26.900450	476.843690	1570.796630	209.406590	462.968840	1566.222410	-132.046330	443.074920	1490.545290	386.242310	439.560970	1481.750980	-336.571780	435.531860	1470.337280	487.020020	446.670590	1469.772830	-427.867220	549.252380	1526.644780	735.283690	483.406070	1539.003660	733.408690	578.301210	1497.594120	-663.498050	506.144410	1506.122070	-676.112980	573.746150	49.057800	242.133270	579.459960	39.258400	129.504780	555.569030	36.859510	-170.796620	571.047970	43.139420	-58.320510	581.540530	1703.006100	100.522930	589.802000	1714.452510	-42.069330	608.819400	1807.495000	22.746330	
